<?xml version="1.0" encoding="iso-8859-1"?>
<!-- Generator: Adobe Illustrator 19.0.0, SVG Export Plug-In . SVG Version: 6.00 Build 0)  -->
<svg version="1.1" id="Capa_1" xmlns="http://www.w3.org/2000/svg" xmlns:xlink="http://www.w3.org/1999/xlink" x="0px" y="0px"
	 viewBox="0 0 512 512" style="enable-background:new 0 0 512 512;" xml:space="preserve">
<g>
	<g>
		<path d="M464.369,460.235l-26.554-174.623c-4.834-31.789-17.911-61.568-37.629-86.485c-40.064,9.64-80.849,15.205-121.746,16.695
			l16.39,11.68c6.747,4.809,8.318,14.175,3.511,20.921c-2.927,4.106-7.543,6.296-12.229,6.296c-3.012,0-6.053-0.904-8.692-2.785
			L256,236.669l-21.42,15.265c-2.639,1.881-5.681,2.785-8.692,2.785c-4.687,0-9.302-2.188-12.229-6.296
			c-4.808-6.746-3.236-16.112,3.511-20.921l16.39-11.68c-40.897-1.49-81.682-7.055-121.746-16.695
			c-19.718,24.918-32.795,54.696-37.629,86.485L47.631,460.235c-1.975,12.981,1.802,26.137,10.36,36.096
			C66.55,506.289,78.989,512,92.119,512h39.739l8.579-71.595c0.985-8.226,8.453-14.092,16.678-13.109
			c8.226,0.985,14.095,8.453,13.109,16.678L162.073,512H241v-69.811c0-8.284,6.716-15,15-15s15,6.716,15,15V512h78.927
			l-8.151-68.026c-0.985-8.225,4.884-15.692,13.109-16.678c8.235-0.982,15.692,4.884,16.678,13.109L380.142,512h39.739
			c13.13,0,25.569-5.711,34.128-15.669C462.567,486.372,466.344,473.217,464.369,460.235z"/>
	</g>
</g>
<g>
	<g>
		<path d="M443.553,29.88C434.008,11.449,415.186,0,394.431,0h-69.319c-7.13,0-13.274,5.02-14.698,12.006
			C305.176,37.717,282.291,56.379,256,56.379c-26.291,0-49.176-18.662-54.413-44.373C200.163,5.02,194.019,0,186.889,0H117.57
			C96.814,0,77.992,11.449,68.447,29.88c-8.411,16.244-8.255,35.559,0.418,51.665c8.674,16.105,24.713,26.866,42.905,28.784
			l10.807,1.14v59.368c87.775,20.51,179.071,20.51,266.846,0v-59.368l10.807-1.14c18.192-1.918,34.231-12.679,42.905-28.784
			C451.808,65.439,451.964,46.124,443.553,29.88z"/>
	</g>
</g>
<g>
</g>
<g>
</g>
<g>
</g>
<g>
</g>
<g>
</g>
<g>
</g>
<g>
</g>
<g>
</g>
<g>
</g>
<g>
</g>
<g>
</g>
<g>
</g>
<g>
</g>
<g>
</g>
<g>
</g>
</svg>
